<svg id="Слой_1" data-name="Слой 1" xmlns="http://www.w3.org/2000/svg" viewBox="0 0 354.33 354.33"><title>Монтажная область 2 копия 2</title><path d="M8.67,324.67c.63-4.94,1.48-9.86,1.85-14.81q4.72-63,9.3-126,3.29-44.34,6.7-88.67c.4-5.26,2.39-7,8.24-7,20.83,0,41.65,0,62.48,0h6.88c0-2.22,0-4.13,0-6q0-29.49,0-59c0-7.46,1.69-9.15,9.1-9.16q64,0,128,0c7.35,0,9,1.68,9,9.25q0,29.24,0,58.48c0,2,0,3.9,0,6.44h6.48q31,0,62,0c7.36,0,8.71,1.28,9.25,8.56q5,66.25,9.92,132.51,3.42,45.33,7,90.65a44.51,44.51,0,0,0,.9,4.83v13c-3.24.91-6.49,2.62-9.73,2.62q-158.77.21-317.53,0c-3.25,0-6.49-1.71-9.74-2.62Q8.67,331.17,8.67,324.67Zm11.7,3.72H334L316.8,100H250.19c0,3.57-.3,6.77.12,9.87a7.57,7.57,0,0,0,2.65,4.67c6.63,4.84,9.22,11.43,6.92,18.67a16.1,16.1,0,0,1-15.34,11.4,16.52,16.52,0,0,1-15.5-11.3c-2.25-7.17.41-14.06,7-18.72a6.16,6.16,0,0,0,2.6-3.67c.36-3.58.12-7.23.12-11.06H115.56c0,2.23.11,4.19,0,6.14-.31,4.3.32,7.53,4.66,10.3,6,3.83,7.37,12.47,4.28,18.89a16.11,16.11,0,0,1-30.22-2.5c-1.92-6.64.54-13.31,6.32-17.63,1.35-1,3.16-2.39,3.34-3.77.47-3.71.16-7.52.16-11.36H37.54ZM238.47,87.92V25.84H115.92V87.92ZM110.19,135.27c2.14-3.41,4.46-5.48,4.17-7.09s-3.12-4.28-4.71-4.19-4.18,2.86-4.33,4.62S107.72,132.08,110.19,135.27ZM250,129.5l0-2.09c-1.83-1.26-3.77-3.63-5.46-3.47s-3.3,2.79-4.93,4.33c1.59,1.58,3,4.22,4.8,4.45S248.15,130.68,250,129.5Z"/></svg>