<svg id="Слой_1" data-name="Слой 1" xmlns="http://www.w3.org/2000/svg" viewBox="0 0 354.33 354.33"><title>Монтажная область 2 копия</title><path d="M177.37,75.94c4.81-4.14,9.3-8.35,14.14-12.11,47.59-37,118.91-16.06,139.56,40.45,10,27.34,6.25,52.89-7,77.9s-32.49,45-53.36,63.56c-26.47,23.57-55.48,43.61-86.1,61.39-5.17,3-9.65,3.14-14.89,0-41.08-24.25-79.33-52.1-112-87.16-13-14-24.14-29.29-31.77-46.94C9.43,134.7,18.18,96.92,44.89,70.92c28.43-27.67,78.29-38.34,118.75-6.48C168.22,68,172.58,71.91,177.37,75.94ZM34.1,135.52c.72,5.26,1,10.63,2.24,15.77,4.6,19.27,15.07,35.47,27.75,50.24,31.2,36.32,69.52,63.87,110.23,88.35,1.51.91,4.7.68,6.23-.33C200.1,276.57,220,264,238.8,250c25.64-19.06,48.76-40.92,66-68.21,10.25-16.22,17-33.67,14.69-53.37-3.68-31.43-24.79-55.72-55.23-64-24.33-6.63-58.45,1.2-77.91,28.31-6.43,9-11.73,8.95-18.44.14-9.75-12.79-21.72-22.31-37.34-27.09C82.84,51.19,34.56,86.15,34.1,135.52Z"/></svg>