<svg width="29" height="28" viewBox="0 0 29 28" fill="none" xmlns="http://www.w3.org/2000/svg">
<path fill-rule="evenodd" clip-rule="evenodd" d="M0.2929 25.8782C-0.0976282 26.2687 -0.0976339 26.9019 0.292887 27.2924C0.683408 27.6829 1.31657 27.6829 1.7071 27.2924L14.5 14.4998L27.2929 27.2924C27.6834 27.6829 28.3166 27.6829 28.7071 27.2924C29.0976 26.9019 29.0976 26.2687 28.7071 25.8782L15.9142 13.0856L27.2929 1.70711C27.6834 1.31659 27.6834 0.683427 27.2929 0.292899C26.9024 -0.0976283 26.2692 -0.0976337 25.8787 0.292887L14.5 11.6714L3.1213 0.292887C2.73077 -0.0976337 2.09761 -0.0976283 1.70709 0.292899C1.31657 0.683427 1.31657 1.31659 1.7071 1.70711L13.0858 13.0856L0.2929 25.8782Z" fill="black"/>
</svg>
