<svg id="Слой_1" data-name="Слой 1" xmlns="http://www.w3.org/2000/svg" viewBox="0 0 354.33 354.33"><title>Монтажная область 2</title><path d="M239.88,228.13l71,70.77q11.5,11.47,23,23a21.87,21.87,0,0,1,2.84,3.47c2.41,3.72,2.09,7.4-1,10.44s-7.05,3.33-10.48.76a92.5,92.5,0,0,1-9.52-8.8q-42.45-42.38-84.84-84.81c-.81-.81-1.66-1.58-2.72-2.59-31.78,26.41-68,36.88-108.54,29.15C88,263.47,62,247.29,42.39,221.63A127.37,127.37,0,0,1,54.68,52.69C100.31,8,171.08,3.51,222.21,42.92a124.69,124.69,0,0,1,41,54.91A126.79,126.79,0,0,1,270.11,166C266.05,189.36,255.1,209.54,239.88,228.13ZM144,255A110.83,110.83,0,0,0,255.14,143.89c0-60.88-49.79-110.76-110.62-110.81C82.92,33,33.22,82.37,33.2,143.59,33.19,205.58,82.32,255,144,255Z"/></svg>