<svg width="16" height="15" viewBox="0 0 16 15" fill="none" xmlns="http://www.w3.org/2000/svg">
<path fill-rule="evenodd" clip-rule="evenodd" d="M7.82453 9.7339C9.53253 9.7339 11.1925 7.88368 11.1925 5.21695C11.1925 2.55022 9.53253 0.7 7.82453 0.7C6.11653 0.7 4.45652 2.55022 4.45652 5.21695C4.45652 7.88368 6.11653 9.7339 7.82453 9.7339ZM11.234 8.06388C11.6505 7.24523 11.8925 6.26734 11.8925 5.21695C11.8925 2.33571 10.0712 0 7.82453 0C5.57783 0 3.75652 2.33571 3.75652 5.21695C3.75652 6.33468 4.03061 7.37032 4.49731 8.21934C3.82122 8.6841 3.24314 9.03373 2.74407 9.33557L2.74347 9.33593C2.66998 9.38038 2.5982 9.42379 2.52807 9.46638C1.93723 9.82524 1.43946 10.1393 1.05505 10.5265C0.248888 11.3385 0 12.4085 0 14.6075V14.9575H0.35H2.38385H13.571H15.6049H15.9549V14.6075C15.9549 12.4085 15.706 11.3385 14.8998 10.5265C14.5154 10.1393 14.0177 9.82524 13.4268 9.46638C13.3565 9.42367 13.2845 9.38014 13.2108 9.33557C12.6576 9.00097 12.0073 8.60765 11.234 8.06388ZM10.8756 8.66757C10.1302 9.75073 9.03959 10.4339 7.82453 10.4339C6.66338 10.4339 5.61585 9.81001 4.87465 8.80937C4.1883 9.28026 3.60026 9.63586 3.10568 9.93494L3.10567 9.93495L3.10501 9.93535C3.03178 9.97963 2.9606 10.0227 2.89145 10.0647C2.2905 10.4297 1.86661 10.7026 1.55182 11.0196C0.992384 11.5832 0.729751 12.3355 0.702397 14.2575H2.38385H13.571H15.2525C15.2251 12.3355 14.9625 11.5832 14.4031 11.0196C14.0883 10.7026 13.6644 10.4297 13.0634 10.0647C12.9941 10.0226 12.9227 9.97937 12.8492 9.93495L12.8492 9.93494C12.3062 9.60656 11.6505 9.21003 10.8756 8.66757Z" fill="black"/>
</svg>
