<svg width="15" height="15" viewBox="0 0 15 15" fill="none" xmlns="http://www.w3.org/2000/svg">
<circle cx="7.5" cy="7.5" r="7.5" fill="black"/>
<path d="M6.62208 3.6H8.39808L8.09808 9.216H6.91008L6.62208 3.6ZM7.51008 12.084C7.23008 12.084 6.99808 11.996 6.81408 11.82C6.63008 11.636 6.53808 11.412 6.53808 11.148C6.53808 10.884 6.63008 10.664 6.81408 10.488C6.99808 10.312 7.23008 10.224 7.51008 10.224C7.78208 10.224 8.00608 10.312 8.18208 10.488C8.36608 10.664 8.45808 10.884 8.45808 11.148C8.45808 11.412 8.36608 11.636 8.18208 11.82C8.00608 11.996 7.78208 12.084 7.51008 12.084Z" fill="white"/>
</svg>
