<svg width="35" height="35" viewBox="0 0 35 35" fill="none" xmlns="http://www.w3.org/2000/svg">
<circle cx="17.5" cy="17.5" r="16.5" stroke="#909090" stroke-width="2"/>
<path fill-rule="evenodd" clip-rule="evenodd" d="M22.7377 24.1527C23.1282 24.5433 23.7614 24.5433 24.1519 24.1527C24.5424 23.7622 24.5424 23.129 24.1519 22.7385L18.8501 17.4368L24.1541 12.1328C24.5446 11.7423 24.5446 11.1091 24.1541 10.7186C23.7636 10.3281 23.1304 10.3281 22.7399 10.7186L17.4359 16.0225L12.1311 10.7177C11.7406 10.3272 11.1074 10.3272 10.7169 10.7177C10.3263 11.1082 10.3263 11.7414 10.7169 12.1319L16.0217 17.4368L10.719 22.7394C10.3285 23.1299 10.3285 23.7631 10.719 24.1536C11.1096 24.5441 11.7427 24.5441 12.1333 24.1536L17.4359 18.851L22.7377 24.1527Z" fill="#909090"/>
</svg>
